HIERARCHY
ROOT hips
{
  OFFSET 0 10.680822821525009 1.3929502295107734
  CHANNELS 6 Xposition Yposition Zposition Yrotation Xrotation Zrotation
  JOINT spine
  {
    OFFSET -7.042017322922631e-31 0.6058489940359625 0
    CHANNELS 3 Yrotation Xrotation Zrotation
    JOINT chest
    {
      OFFSET 0 1.2699794144455032 0
      CHANNELS 3 Yrotation Xrotation Zrotation
      JOINT upperChest
      {
        OFFSET 0 1.217799211677689 0
        CHANNELS 3 Yrotation Xrotation Zrotation
        JOINT neck
        {
          OFFSET 0 1.5248826104153006 0
          CHANNELS 3 Yrotation Xrotation Zrotation
          JOINT head
          {
            OFFSET 0 0.8197772727844447 0
            CHANNELS 3 Yrotation Xrotation Zrotation
            JOINT leftEye
            {
              OFFSET 0.2793952361220866 0.6769952096623495 0.1830357412467788
              CHANNELS 3 Yrotation Xrotation Zrotation
              End Site
              {
                OFFSET 0.2793952361220866 0.6769952096623495 0.1830357412467788
              }
            }
            JOINT rightEye
            {
              OFFSET -0.27939522230689573 0.676995205357064 0.18303631459760622
              CHANNELS 3 Yrotation Xrotation Zrotation
              End Site
              {
                OFFSET -0.27939522230689573 0.676995205357064 0.18303631459760622
              }
            }
          }
        }
        JOINT leftShoulder
        {
          OFFSET 0.41486978509200423 1.1670505408695453 0
          CHANNELS 3 Yrotation Xrotation Zrotation
          JOINT leftUpperArm
          {
            OFFSET 0.9737926108153417 0 0
            CHANNELS 3 Yrotation Xrotation Zrotation
            JOINT leftLowerArm
            {
              OFFSET 2.5269332222665284 0 0
              CHANNELS 3 Yrotation Xrotation Zrotation
              JOINT leftHand
              {
                OFFSET 2.4263782738425914 0 0
                CHANNELS 3 Yrotation Xrotation Zrotation
                JOINT leftIndexProximal
                {
                  OFFSET 0.724320348022514 0.08170607082582437 0.20360061616140124
                  CHANNELS 3 Yrotation Xrotation Zrotation
                  JOINT leftIndexIntermediate
                  {
                    OFFSET 0.36548960630744587 -0.010566596513783999 -0.01414783573280308
                    CHANNELS 3 Yrotation Xrotation Zrotation
                    JOINT leftIndexDistal
                    {
                      OFFSET 0.22502819650693362 -0.007863819831430696 -0.007567681939621526
                      CHANNELS 3 Yrotation Xrotation Zrotation
                      End Site
                      {
                        OFFSET 0.22502819650693362 -0.007863819831430696 -0.007567681939621526
                      }
                    }
                  }
                }
                JOINT leftLittleProximal
                {
                  OFFSET 0.6720322998298205 0.08170601055037707 -0.3230036039466837
                  CHANNELS 3 Yrotation Xrotation Zrotation
                  JOINT leftLittleIntermediate
                  {
                    OFFSET 0.34583592281688713 5.476543019078406e-8 1.3869203337180114e-7
                    CHANNELS 3 Yrotation Xrotation Zrotation
                    JOINT leftLittleDistal
                    {
                      OFFSET 0.19925728062053938 0.003098047439490381 0.0038303983709246925
                      CHANNELS 3 Yrotation Xrotation Zrotation
                      End Site
                      {
                        OFFSET 0.19925728062053938 0.003098047439490381 0.0038303983709246925
                      }
                    }
                  }
                }
                JOINT leftMiddleProximal
                {
                  OFFSET 0.7300436596551069 0.0817073395107144 0.022661722987926763
                  CHANNELS 3 Yrotation Xrotation Zrotation
                  JOINT leftMiddleIntermediate
                  {
                    OFFSET 0.40758254347686607 -0.0000012383587111308714 2.408460318820138e-7
                    CHANNELS 3 Yrotation Xrotation Zrotation
                    JOINT leftMiddleDistal
                    {
                      OFFSET 0.2514490105498507 0.0000013869132886590307 9.738618134136345e-8
                      CHANNELS 3 Yrotation Xrotation Zrotation
                      End Site
                      {
                        OFFSET 0.2514490105498507 0.0000013869132886590307 9.738618134136345e-8
                      }
                    }
                  }
                }
                JOINT leftRingProximal
                {
                  OFFSET 0.7217261161191838 0.08170601902187746 -0.15043395722184966
                  CHANNELS 3 Yrotation Xrotation Zrotation
                  JOINT leftRingIntermediate
                  {
                    OFFSET 0.37808807487521556 0.0000013754022405443322 2.2046919317952884e-7
                    CHANNELS 3 Yrotation Xrotation Zrotation
                    JOINT leftRingDistal
                    {
                      OFFSET 0.21812105442344254 -0.002713483731960231 -0.004991354517454624
                      CHANNELS 3 Yrotation Xrotation Zrotation
                      End Site
                      {
                        OFFSET 0.21812105442344254 -0.002713483731960231 -0.004991354517454624
                      }
                    }
                  }
                }
                JOINT leftThumbProximal
                {
                  OFFSET 0.10793587079521427 -0.1652791240518252 -0.07775251827190094
                  CHANNELS 3 Yrotation Xrotation Zrotation
                  JOINT leftThumbIntermediate
                  {
                    OFFSET 0.40355819082296684 -0.017484006740276614 0.3177776014416309
                    CHANNELS 3 Yrotation Xrotation Zrotation
                    JOINT leftThumbDistal
                    {
                      OFFSET 0.2318764658022603 -0.018510186824293617 0.21396001800186287
                      CHANNELS 3 Yrotation Xrotation Zrotation
                      End Site
                      {
                        OFFSET 0.2318764658022603 -0.018510186824293617 0.21396001800186287
                      }
                    }
                  }
                }
              }
            }
          }
        }
        JOINT rightShoulder
        {
          OFFSET -0.4148697850920044 1.1670505408695453 0
          CHANNELS 3 Yrotation Xrotation Zrotation
          JOINT rightUpperArm
          {
            OFFSET -0.9737926108153414 0 0
            CHANNELS 3 Yrotation Xrotation Zrotation
            JOINT rightLowerArm
            {
              OFFSET -2.5269332222665293 0 0
              CHANNELS 3 Yrotation Xrotation Zrotation
              JOINT rightHand
              {
                OFFSET -2.42637827384259 0 0
                CHANNELS 3 Yrotation Xrotation Zrotation
                JOINT rightIndexProximal
                {
                  OFFSET -0.724320348022514 0.08170607082582437 0.20360061616140124
                  CHANNELS 3 Yrotation Xrotation Zrotation
                  JOINT rightIndexIntermediate
                  {
                    OFFSET -0.36548960630744587 -0.010566596513783999 -0.01414783573280308
                    CHANNELS 3 Yrotation Xrotation Zrotation
                    JOINT rightIndexDistal
                    {
                      OFFSET -0.22502819650693362 -0.007863819831430696 -0.007567681939621526
                      CHANNELS 3 Yrotation Xrotation Zrotation
                      End Site
                      {
                        OFFSET -0.22502819650693362 -0.007863819831430696 -0.007567681939621526
                      }
                    }
                  }
                }
                JOINT rightLittleProximal
                {
                  OFFSET -0.6720322998298205 0.08170601055037707 -0.3230036039466837
                  CHANNELS 3 Yrotation Xrotation Zrotation
                  JOINT rightLittleIntermediate
                  {
                    OFFSET -0.34583592281688713 5.476543019078406e-8 1.3869203337180114e-7
                    CHANNELS 3 Yrotation Xrotation Zrotation
                    JOINT rightLittleDistal
                    {
                      OFFSET -0.19925728062053938 0.003098047439490381 0.0038303983709246925
                      CHANNELS 3 Yrotation Xrotation Zrotation
                      End Site
                      {
                        OFFSET -0.19925728062053938 0.003098047439490381 0.0038303983709246925
                      }
                    }
                  }
                }
                JOINT rightMiddleProximal
                {
                  OFFSET -0.7300436596551069 0.0817073395107144 0.022661722987926763
                  CHANNELS 3 Yrotation Xrotation Zrotation
                  JOINT rightMiddleIntermediate
                  {
                    OFFSET -0.40758254347686607 -0.0000012383587111308714 2.408460318820138e-7
                    CHANNELS 3 Yrotation Xrotation Zrotation
                    JOINT rightMiddleDistal
                    {
                      OFFSET -0.2514490105498507 0.0000013869132886590307 9.738618134136345e-8
                      CHANNELS 3 Yrotation Xrotation Zrotation
                      End Site
                      {
                        OFFSET -0.2514490105498507 0.0000013869132886590307 9.738618134136345e-8
                      }
                    }
                  }
                }
                JOINT rightRingProximal
                {
                  OFFSET -0.7217261161191838 0.08170601902187746 -0.15043395722184966
                  CHANNELS 3 Yrotation Xrotation Zrotation
                  JOINT rightRingIntermediate
                  {
                    OFFSET -0.37808807487521556 0.0000013754022405443322 2.2046919317952884e-7
                    CHANNELS 3 Yrotation Xrotation Zrotation
                    JOINT rightRingDistal
                    {
                      OFFSET -0.21812105442344254 -0.002713483731960231 -0.004991354517454624
                      CHANNELS 3 Yrotation Xrotation Zrotation
                      End Site
                      {
                        OFFSET -0.21812105442344254 -0.002713483731960231 -0.004991354517454624
                      }
                    }
                  }
                }
                JOINT rightThumbProximal
                {
                  OFFSET -0.10793587079521427 -0.1652791240518252 -0.07775251827190094
                  CHANNELS 3 Yrotation Xrotation Zrotation
                  JOINT rightThumbIntermediate
                  {
                    OFFSET -0.40355819082296684 -0.017484006740276614 0.3177776014416309
                    CHANNELS 3 Yrotation Xrotation Zrotation
                    JOINT rightThumbDistal
                    {
                      OFFSET -0.2318764658022603 -0.018510186824293617 0.21396001800186287
                      CHANNELS 3 Yrotation Xrotation Zrotation
                      End Site
                      {
                        OFFSET -0.2318764658022603 -0.018510186824293617 0.21396001800186287
                      }
                    }
                  }
                }
              }
            }
          }
        }
      }
    }
  }
  JOINT leftUpperLeg
  {
    OFFSET 0.8486251390888677 -0.4421577294694363 0
    CHANNELS 3 Yrotation Xrotation Zrotation
    JOINT leftLowerLeg
    {
      OFFSET 0 -4.10147812638609 0
      CHANNELS 3 Yrotation Xrotation Zrotation
      JOINT leftFoot
      {
        OFFSET -0.0002543926476658853 -4.77292286812444 0.007402811231737388
        CHANNELS 3 Yrotation Xrotation Zrotation
        JOINT leftToes
        {
          OFFSET 0 -0.7027875951174846 1.2062924140498823
          CHANNELS 3 Yrotation Xrotation Zrotation
          End Site
          {
            OFFSET 0 -0.7027875951174846 1.2062924140498823
          }
        }
      }
    }
  }
  JOINT rightUpperLeg
  {
    OFFSET -0.8486251390888677 -0.4421577294694363 0
    CHANNELS 3 Yrotation Xrotation Zrotation
    JOINT rightLowerLeg
    {
      OFFSET 0 -4.10147812638609 0
      CHANNELS 3 Yrotation Xrotation Zrotation
      JOINT rightFoot
      {
        OFFSET 0.0002543926476658853 -4.77292286812444 0.007402811231737388
        CHANNELS 3 Yrotation Xrotation Zrotation
        JOINT rightToes
        {
          OFFSET 0 -0.7027875951174846 1.2062924140498823
          CHANNELS 3 Yrotation Xrotation Zrotation
          End Site
          {
            OFFSET 0 -0.7027875951174846 1.2062924140498823
          }
        }
      }
    }
  }
}
MOTION
Frames: 4
Frame Time: 0.03333333333333333
0.00421899976208806 -0.007810088065536291 0.10264755040407181 0.4724125473007186 -2.7875956709473346 -0.06908899324226003 -0.09835120365851774 0.7263159956098031 -0.7259240639783406 -0.45812823348760745 2.8952717454561725 -2.220109122673158 0 0 0 -0.4559040432091877 1.835128595457761 3.038683766968091 1.2447954053178727 -0.8487875440696295 2.4517970690300013 0 0 0 0 0 0 -2.3781330093383213 1.1489211104834602 -9.62336625445527 -43.74336806864641 10.311553069344292 -60.0199333489241 -13.634058454687912 -2.8468876357536574 0.5172241545644664 8.118865666785481 -18.462237541091643 8.521952323309817 2.041557396349558 0.34782397034750745 -19.382651231069197 2.057965371353444 0.3518198388930059 -19.38285627678998 1.7680053443066024 0.2610419819944084 -16.736598578741557 7.422668943031836 4.8292973070572724 -44.37715641560712 0.20227271486656473 1.9770862176080024 -45.46099641491294 4.097545213158042 1.7481892161461932 -42.36288350104812 2.9418693784202663 0.7469716613186667 -28.522953429589133 2.9506018344673675 0.7497744657560471 -28.554952917571008 2.69552709121403 0.6197845729958964 -25.8944519086032 3.7823823703153785 1.2959150893493507 -37.80756129898632 3.781655755541151 1.2959455128172654 -37.807626910335884 3.5526206548748847 1.1265234927098264 -35.16495147374882 10.194263945058035 -0.9127516622416205 11.442128390771456 24.803106543202887 5.391153702206475 0.12378585973869204 3.600673651310149 -0.5879587124628108 4.951707544929131 -5.02442720686234 0.37634044644555564 9.680321217255017 57.335345985214865 14.47854209992012 60.36683344509174 20.571179623936384 -4.222675374057048 -1.0347399971651354 -4.6496324730957745 -29.384996372294182 -7.892868327301196 -1.1561233085994347 0.1081252137510571 10.516232271645537 -1.1085135318018116 0.10279016662989718 10.51556977654756 -0.581319154207508 0.026199490993861846 5.258368455344 -1.0790521131764907 0.09380575324675883 10.514758344983413 -1.0432743435153673 0.07615048849672622 10.514915943061437 -0.6285360245722138 0.017137933726418874 5.259008122915274 -1.194170731197249 0.11518325382883868 10.516657905561871 -1.0409139674477705 0.09741249168696298 10.514740500559583 -0.6081278316595415 0.02596377773942833 5.258715595365571 -1.1200436589785585 0.10143097683688196 10.515723342867323 -1.1629058308768616 0.10608574504984894 10.516244023728046 -0.5840312854796016 0.02810863080049814 5.258394273748441 -8.204796876153932 -1.4746120525709419 -12.112812503548412 -17.459608844111674 5.027317798880015 -7.37309748483784 -3.8917159762582805 -0.7836045938141292 -5.03210191474414 2.585511813070652 -0.9871749933147904 0.6282853959175484 -4.138621771526562 4.690232297966655 -0.3445705295624237 0.04987361350724688 -0.961773687802024 -0.4555797977206481 0.0000023282456077644586 -0.5165419207178404 -2.4097078099572073e-7 -7.944833617404399 -0.9429951169427673 -0.1285682539378502 3.771245089038858 5.203600679846925 -1.485462130224673 -0.13920832422417206 -1.4811010764799089 2.3953962401001636 0.0000023175350660888387 -0.2545638821932315 -0.0000013323838738221535
0.004292306024581194 -0.007636519339950354 0.10416360199451447 0.45943494030166565 -2.7994988277602473 -0.06961412310965807 -0.09816710928867542 0.7280156756585395 -0.7256686716354687 -0.44837886127264104 2.910653647145753 -2.222301928808694 0 0 0 -0.4569155657199019 1.836378521251445 3.0487854558798118 1.242582907574495 -0.8429982744689412 2.4531947452913667 0 0 0 0 0 0 -2.400383112808218 1.1507491945266404 -9.623738950021087 -43.69811943721726 10.312462513888779 -59.99082515235198 -13.662379699009021 -2.852595127106488 0.5189683841293916 8.088741109997573 -18.499015947454197 8.441793623886806 2.041557396349558 0.34782397034750745 -19.382651231069197 2.057965371353444 0.3518198388930059 -19.38285627678998 1.7680053443066024 0.2610419819944084 -16.736598578741557 7.422668943031836 4.8292973070572724 -44.37715641560712 0.20227271486656473 1.9770862176080024 -45.46099641491294 4.097545213158042 1.7481892161461932 -42.36288350104812 2.9418693784202663 0.7469716613186667 -28.522953429589133 2.9506018344673675 0.7497744657560471 -28.554952917571008 2.69552709121403 0.6197845729958964 -25.8944519086032 3.7823823703153785 1.2959150893493507 -37.80756129898632 3.781655755541151 1.2959455128172654 -37.807626910335884 3.5526206548748847 1.1265234927098264 -35.16495147374882 10.194263945058035 -0.9127516622416205 11.442128390771456 24.803106543202887 5.391153702206475 0.12378585973869204 3.600673651310149 -0.5879587124628108 4.951707544929131 -5.037143101695285 0.37344323696120846 9.68083768345227 57.39687962728989 14.483624724933273 60.37113417043766 20.558635947770686 -4.220285153248073 -1.0336794744050708 -4.668921147401617 -29.411598512055665 -7.9156553135610705 -1.1561262962041543 0.10812247233235847 10.516248004770581 -1.1085304974046366 0.10277766015987712 10.515563061058081 -0.5813205415183978 0.02620330629524247 5.2583812080540095 -1.0790617164397283 0.09379761570578765 10.514773238649225 -1.0432848005179767 0.07616012013918096 10.514910067000011 -0.6285358644992824 0.0171123788793227 5.259021725791005 -1.194173718762076 0.11518053241984222 10.516674478128596 -1.0409309334233419 0.09739998521899361 10.514733785053156 -0.6081291122480288 0.025967588038221336 5.258728348068229 -1.120046753321572 0.10142822874865198 10.515739292145527 -1.1629225827619192 0.10607323190839969 10.516236684948238 -0.5840326194318115 0.028112446101939012 5.258407451548472 -8.204740110317196 -1.4746543283674802 -12.112810833464252 -17.459334583485965 5.027282230443966 -7.373046015923879 -3.8916149902596384 -0.7836510754642929 -5.032110294667387 2.595451699122831 -0.9518495332686252 0.6280959222798581 -4.142536468450625 4.667249820620984 -0.33839008786895214 0.049839850625069834 -0.9621520695777664 -0.4573969363781932 -0.000002366300148374846 -0.5158040702629219 1.4021558906724185e-7 -7.930766902823717 -0.9087014887523093 -0.13428892541192036 3.7723668946756206 5.176948430321911 -1.480568378659883 -0.13902186960339138 -1.477111236771737 2.3941465405115983 -0.000007890765685955087 -0.25398272342144085 4.975288841267039e-7
0.004321329761296511 -0.007398100760848791 0.10681236535310745 0.42469019619059634 -2.8286700986379465 -0.07018969811696436 -0.09757977338924621 0.7363807791204259 -0.7239815183207045 -0.4175503112900655 2.943477109982096 -2.2310754480678594 0 0 0 -0.4591316349178399 1.8347467628421272 3.0597081725651045 1.2361800792471822 -0.8260815164901871 2.4551355225671037 0 0 0 0 0 0 -2.420063982667252 1.1545957963103677 -9.624191505080633 -43.66662133930621 10.29009423729914 -59.96399881712085 -13.699356301475321 -2.8601225965014017 0.5212624759389295 8.062610734982995 -18.58340498808963 8.32795850175051 2.041557396349558 0.34782397034750745 -19.382651231069197 2.057965371353444 0.3518198388930059 -19.38285627678998 1.7680053443066024 0.2610419819944084 -16.736598578741557 7.422668943031836 4.8292973070572724 -44.37715641560712 0.20227271486656473 1.9770862176080024 -45.46099641491294 4.097545213158042 1.7481892161461932 -42.36288350104812 2.9418693784202663 0.7469716613186667 -28.522953429589133 2.9506018344673675 0.7497744657560471 -28.554952917571008 2.69552709121403 0.6197845729958964 -25.8944519086032 3.7823823703153785 1.2959150893493507 -37.80756129898632 3.781655755541151 1.2959455128172654 -37.807626910335884 3.5526206548748847 1.1265234927098264 -35.16495147374882 10.194263945058035 -0.9127516622416205 11.442128390771456 24.803106543202887 5.391153702206475 0.12378585973869204 3.600673651310149 -0.5879587124628108 4.951707544929131 -5.062480036750011 0.3676209125491593 9.681977848772839 57.45078835954764 14.496358252577286 60.369520476516705 20.55536868097613 -4.219628100643998 -1.0333966628269065 -4.7215693776986996 -29.435474436521993 -7.932062410714608 -1.1561258694034806 0.10813181716836143 10.516236468817965 -1.1085226014637233 0.10278257603635908 10.515563900494282 -0.5813188340588412 0.026185752240333548 5.258359953537036 -1.079061076222181 0.09380697387790467 10.514760863297804 -1.0432793586084643 0.07615619811302878 10.514913424749427 -0.6285321828218576 0.01712695639797251 5.259000046207527 -1.1941730785696136 0.11518984390748806 10.516662102729592 -1.0409231440131967 0.09740490109466955 10.514734624491476 -0.6081274581545659 0.025950038985925756 5.258707093563508 -1.1200461131126735 0.10143756024242415 10.515728379481672 -1.1629147936688915 0.10607814778539701 10.516237524382658 -0.5840309119729827 0.02809488704417238 5.258386197032016 -8.204578623735449 -1.4746467486160217 -12.112806658253762 -17.459164420069733 5.02723552009114 -7.372990297095508 -3.8915289122447967 -0.7836694866806313 -5.032057811196427 2.634093490942133 -0.8925150890797816 0.6259662315215705 -4.128944487226184 4.651178638470609 -0.3265407031390476 0.049850730741116706 -0.9734591398001384 -0.4593281576948951 2.9679785753627664e-7 -0.5122120999904195 -3.46728097117851e-7 -7.901369226691118 -0.8499848797309397 -0.14196975310063983 3.777038262454029 5.148503114510781 -1.4753553889992 -0.13900422578779928 -1.47856473626562 2.392036291366699 -0.0000036352175829165045 -0.25322552550161215 7.327703215676777e-8
0.004052598960697651 -0.00730940904942301 0.10923904925584793 0.3863064930350354 -2.8433398885976424 -0.07024867170632983 -0.09638808640183645 0.7410951220777563 -0.7182387890226274 -0.4122961358033528 2.965361094924481 -2.2068003490403494 0 0 0 -0.4606184044008648 1.831998125651454 3.053351692118259 1.2315982809965078 -0.7796544559190497 2.455111776457238 0 0 0 0 0 0 -2.423170763509105 1.1578477351943126 -9.624322809964061 -43.68050529837527 10.238041648179458 -59.958786625469344 -13.690736760395103 -2.8583840700296848 0.5207151816263256 8.035699549003533 -18.69939827218052 8.253344271060206 2.041557396349558 0.34782397034750745 -19.382651231069197 2.057965371353444 0.3518198388930059 -19.38285627678998 1.7680053443066024 0.2610419819944084 -16.736598578741557 7.422668943031836 4.8292973070572724 -44.37715641560712 0.20227271486656473 1.9770862176080024 -45.46099641491294 4.097545213158042 1.7481892161461932 -42.36288350104812 2.9418693784202663 0.7469716613186667 -28.522953429589133 2.9506018344673675 0.7497744657560471 -28.554952917571008 2.69552709121403 0.6197845729958964 -25.8944519086032 3.7823823703153785 1.2959150893493507 -37.80756129898632 3.781655755541151 1.2959455128172654 -37.807626910335884 3.5526206548748847 1.1265234927098264 -35.16495147374882 10.194263945058035 -0.9127516622416205 11.442128390771456 24.803106543202887 5.391153702206475 0.12378585973869204 3.600673651310149 -0.5879587124628108 4.951707544929131 -5.047373964661641 0.3714708714427721 9.681284828463047 57.520394996324924 14.490250653522367 60.34637971334967 20.500587438220613 -4.209000619456504 -1.0286492147219046 -4.722770760534986 -29.484196468720754 -7.958035885904624 -1.1561111447801535 0.10814601785062983 10.516256182985897 -1.1085251623094297 0.1027729510570335 10.515591385716547 -0.5813208616670644 0.026186954527175812 5.258353264199132 -1.07904656462437 0.09382116121368483 10.514780793592003 -1.0432821329152766 0.07614335147634911 10.51494090996978 -0.6285359178569263 0.017116087458764046 5.258991544409672 -1.1941586742391295 0.11520407794376632 10.516682872463534 -1.0409257049151663 0.09739526277668958 10.514762109732832 -0.6081294323951505 0.025951239605238947 5.258700717211809 -1.12003160171089 0.10145176759177506 10.515747470341593 -1.162917354466604 0.10606852947518046 10.51626563289328 -0.5840329395803416 0.028096087663506762 5.258379507692705 -8.204412910581567 -1.4746604135200785 -12.112775998078078 -17.459009395197935 5.027205951153928 -7.372953277926723 -3.8914332693479237 -0.7836973436515928 -5.032071719774404 2.639294118792573 -0.867430982178713 0.627033244834013 -4.08176435278172 4.669784546401981 -0.3197979613895644 0.04993247187269376 -0.9954589047727501 -0.46418783358540455 4.567404458826261e-7 -0.5062544456228346 -1.2707859119113653e-7 -7.902826206381214 -0.8175796177101594 -0.1433523105588042 3.8117808664216835 5.1383312786773665 -1.4719738744882354 -0.13931600575119996 -1.4862187105800637 2.3897964883069984 -0.000011530663119279535 -0.25278585446762286 1.091377867299205e-7
